<mxfile host="Electron" modified="2024-08-16T14:10:03.169Z" agent="Mozilla/5.0 (Windows NT 10.0; Win64; x64) AppleWebKit/537.36 (KHTML, like Gecko) draw.io/21.2.8 Chrome/112.0.5615.165 Electron/24.2.0 Safari/537.36" etag="-mbOKwy_o2_Ct1Xrh1US" version="21.2.8" type="device">
  <diagram name="第 1 页" id="-6tzO9thv0duzDfdr6pI">
    <mxGraphModel dx="2375" dy="894" grid="1" gridSize="10" guides="1" tooltips="1" connect="1" arrows="1" fold="1" page="1" pageScale="1" pageWidth="827" pageHeight="1169" math="0" shadow="0">
      <root>
        <mxCell id="0" />
        <mxCell id="1" parent="0" />
        <mxCell id="mPhKjkjH0wH_GJncIGl8-31" value="" style="rounded=1;whiteSpace=wrap;html=1;dashed=1;strokeWidth=2;" vertex="1" parent="1">
          <mxGeometry x="760" y="160" width="450" height="380" as="geometry" />
        </mxCell>
        <mxCell id="mPhKjkjH0wH_GJncIGl8-34" value="" style="rounded=1;whiteSpace=wrap;html=1;dashed=1;strokeWidth=2;" vertex="1" parent="1">
          <mxGeometry x="-100" y="300" width="580" height="300" as="geometry" />
        </mxCell>
        <mxCell id="xLH1ZgLUJUFJC4OoAu4b-2" value="" style="rounded=1;whiteSpace=wrap;html=1;dashed=1;strokeWidth=2;" parent="1" vertex="1">
          <mxGeometry x="760" y="550" width="720" height="280" as="geometry" />
        </mxCell>
        <mxCell id="mPhKjkjH0wH_GJncIGl8-54" value="" style="rounded=1;whiteSpace=wrap;html=1;fillColor=#f5f5f5;fontColor=#333333;strokeColor=#666666;" vertex="1" parent="1">
          <mxGeometry x="800" y="640" width="117" height="50" as="geometry" />
        </mxCell>
        <mxCell id="mPhKjkjH0wH_GJncIGl8-52" value="" style="rounded=1;whiteSpace=wrap;html=1;fillColor=#bac8d3;strokeColor=#23445d;" vertex="1" parent="1">
          <mxGeometry x="500" y="525" width="170" height="60" as="geometry" />
        </mxCell>
        <mxCell id="mPhKjkjH0wH_GJncIGl8-49" value="" style="rounded=0;whiteSpace=wrap;html=1;fillColor=#dae8fc;strokeColor=#6c8ebf;gradientColor=#7ea6e0;" vertex="1" parent="1">
          <mxGeometry x="800" y="580" width="200" height="40" as="geometry" />
        </mxCell>
        <mxCell id="mPhKjkjH0wH_GJncIGl8-46" value="" style="rounded=1;whiteSpace=wrap;html=1;fillColor=#f8cecc;strokeColor=#b85450;" vertex="1" parent="1">
          <mxGeometry x="59.25" y="457.5" width="111.5" height="55" as="geometry" />
        </mxCell>
        <mxCell id="mPhKjkjH0wH_GJncIGl8-27" value="" style="rounded=1;whiteSpace=wrap;html=1;fillColor=#fff2cc;strokeColor=#d6b656;" vertex="1" parent="1">
          <mxGeometry x="957" y="358.75" width="113" height="47.5" as="geometry" />
        </mxCell>
        <mxCell id="xLH1ZgLUJUFJC4OoAu4b-4" value="&lt;font style=&quot;font-size: 16px;&quot;&gt;想要访问的内网主机或服务&lt;br&gt;内网IP：IP1&lt;br&gt;&lt;/font&gt;" style="text;strokeColor=none;align=center;fillColor=none;html=1;verticalAlign=middle;whiteSpace=wrap;rounded=0;" parent="1" vertex="1">
          <mxGeometry x="-75" y="370" width="115" height="45" as="geometry" />
        </mxCell>
        <mxCell id="xLH1ZgLUJUFJC4OoAu4b-13" value="" style="image;points=[];aspect=fixed;html=1;align=center;shadow=0;dashed=0;image=img/lib/allied_telesis/computer_and_terminals/Personal_Computer.svg;" parent="1" vertex="1">
          <mxGeometry x="59.25" y="362.5" width="44.27" height="60" as="geometry" />
        </mxCell>
        <mxCell id="mPhKjkjH0wH_GJncIGl8-1" value="&lt;font style=&quot;font-size: 20px;&quot;&gt;不同的隧道模式&lt;/font&gt;" style="text;strokeColor=none;align=center;fillColor=none;html=1;verticalAlign=middle;whiteSpace=wrap;rounded=0;" vertex="1" parent="1">
          <mxGeometry x="510" y="540" width="150" height="30" as="geometry" />
        </mxCell>
        <mxCell id="mPhKjkjH0wH_GJncIGl8-3" value="" style="shape=process;whiteSpace=wrap;html=1;backgroundOutline=1;fillColor=#fff2cc;strokeColor=#d6b656;" vertex="1" parent="1">
          <mxGeometry x="310" y="395" width="120" height="60" as="geometry" />
        </mxCell>
        <mxCell id="mPhKjkjH0wH_GJncIGl8-4" value="&lt;font style=&quot;font-size: 18px;&quot;&gt;frp-client&lt;/font&gt;" style="text;strokeColor=none;align=center;fillColor=none;html=1;verticalAlign=middle;whiteSpace=wrap;rounded=0;" vertex="1" parent="1">
          <mxGeometry x="305" y="410" width="130" height="30" as="geometry" />
        </mxCell>
        <mxCell id="mPhKjkjH0wH_GJncIGl8-6" value="" style="shape=process;whiteSpace=wrap;html=1;backgroundOutline=1;fillColor=#fff2cc;strokeColor=#d6b656;" vertex="1" parent="1">
          <mxGeometry x="832" y="352.5" width="120" height="60" as="geometry" />
        </mxCell>
        <mxCell id="mPhKjkjH0wH_GJncIGl8-7" value="&lt;font style=&quot;font-size: 18px;&quot;&gt;frp-server&lt;/font&gt;" style="text;strokeColor=none;align=center;fillColor=none;html=1;verticalAlign=middle;whiteSpace=wrap;rounded=0;" vertex="1" parent="1">
          <mxGeometry x="827" y="367.5" width="130" height="30" as="geometry" />
        </mxCell>
        <mxCell id="mPhKjkjH0wH_GJncIGl8-8" value="" style="endArrow=classic;html=1;rounded=0;" edge="1" parent="1">
          <mxGeometry width="50" height="50" relative="1" as="geometry">
            <mxPoint x="455" y="338.75" as="sourcePoint" />
            <mxPoint x="800" y="338.75" as="targetPoint" />
          </mxGeometry>
        </mxCell>
        <mxCell id="mPhKjkjH0wH_GJncIGl8-9" value="&lt;font style=&quot;font-size: 16px;&quot;&gt;0、私有协议建立连接&lt;br&gt;（同样以下方某种协议做包装）&lt;/font&gt;" style="text;strokeColor=none;align=center;fillColor=none;html=1;verticalAlign=middle;whiteSpace=wrap;rounded=0;" vertex="1" parent="1">
          <mxGeometry x="490" y="300" width="240" height="30" as="geometry" />
        </mxCell>
        <mxCell id="mPhKjkjH0wH_GJncIGl8-10" value="" style="endArrow=classic;html=1;rounded=0;" edge="1" parent="1">
          <mxGeometry width="50" height="50" relative="1" as="geometry">
            <mxPoint x="790" y="349.5" as="sourcePoint" />
            <mxPoint x="450" y="349.5" as="targetPoint" />
          </mxGeometry>
        </mxCell>
        <mxCell id="mPhKjkjH0wH_GJncIGl8-11" value="" style="endArrow=classic;html=1;rounded=0;strokeColor=#990099;" edge="1" parent="1">
          <mxGeometry width="50" height="50" relative="1" as="geometry">
            <mxPoint x="790" y="397.5" as="sourcePoint" />
            <mxPoint x="450" y="397.5" as="targetPoint" />
          </mxGeometry>
        </mxCell>
        <mxCell id="mPhKjkjH0wH_GJncIGl8-12" value="" style="endArrow=classic;html=1;rounded=0;strokeColor=#990099;" edge="1" parent="1">
          <mxGeometry width="50" height="50" relative="1" as="geometry">
            <mxPoint x="450" y="407.5" as="sourcePoint" />
            <mxPoint x="795" y="407.5" as="targetPoint" />
          </mxGeometry>
        </mxCell>
        <mxCell id="mPhKjkjH0wH_GJncIGl8-13" value="" style="endArrow=classic;html=1;rounded=0;strokeColor=#0066CC;" edge="1" parent="1">
          <mxGeometry width="50" height="50" relative="1" as="geometry">
            <mxPoint x="790" y="447.5" as="sourcePoint" />
            <mxPoint x="450" y="447.5" as="targetPoint" />
          </mxGeometry>
        </mxCell>
        <mxCell id="mPhKjkjH0wH_GJncIGl8-14" value="" style="endArrow=classic;html=1;rounded=0;strokeColor=#0066CC;" edge="1" parent="1">
          <mxGeometry width="50" height="50" relative="1" as="geometry">
            <mxPoint x="450" y="457.5" as="sourcePoint" />
            <mxPoint x="795" y="457.5" as="targetPoint" />
          </mxGeometry>
        </mxCell>
        <mxCell id="mPhKjkjH0wH_GJncIGl8-15" value="" style="endArrow=classic;html=1;rounded=0;strokeColor=#006600;" edge="1" parent="1">
          <mxGeometry width="50" height="50" relative="1" as="geometry">
            <mxPoint x="790" y="497.5" as="sourcePoint" />
            <mxPoint x="450" y="497.5" as="targetPoint" />
          </mxGeometry>
        </mxCell>
        <mxCell id="mPhKjkjH0wH_GJncIGl8-16" value="" style="endArrow=classic;html=1;rounded=0;strokeColor=#006600;" edge="1" parent="1">
          <mxGeometry width="50" height="50" relative="1" as="geometry">
            <mxPoint x="450" y="507.5" as="sourcePoint" />
            <mxPoint x="795" y="507.5" as="targetPoint" />
          </mxGeometry>
        </mxCell>
        <mxCell id="mPhKjkjH0wH_GJncIGl8-17" value="" style="shape=curlyBracket;whiteSpace=wrap;html=1;rounded=1;flipH=1;labelPosition=right;verticalLabelPosition=middle;align=left;verticalAlign=middle;" vertex="1" parent="1">
          <mxGeometry x="807" y="397.5" width="20" height="120" as="geometry" />
        </mxCell>
        <mxCell id="mPhKjkjH0wH_GJncIGl8-18" value="&lt;font style=&quot;font-size: 16px;&quot;&gt;将数据包（TCP/UDP/HTTPS）包装在隧道协议中&lt;/font&gt;" style="text;strokeColor=none;align=center;fillColor=none;html=1;verticalAlign=middle;whiteSpace=wrap;rounded=0;" vertex="1" parent="1">
          <mxGeometry x="820" y="412.5" width="158" height="112.5" as="geometry" />
        </mxCell>
        <mxCell id="mPhKjkjH0wH_GJncIGl8-19" value="&lt;font color=&quot;#990099&quot; style=&quot;font-size: 16px;&quot;&gt;TCP-TLS&lt;/font&gt;" style="text;strokeColor=none;align=center;fillColor=none;html=1;verticalAlign=middle;whiteSpace=wrap;rounded=0;" vertex="1" parent="1">
          <mxGeometry x="490" y="367.5" width="240" height="30" as="geometry" />
        </mxCell>
        <mxCell id="mPhKjkjH0wH_GJncIGl8-20" value="&lt;font color=&quot;#0066cc&quot; style=&quot;font-size: 16px;&quot;&gt;UDP-KCP&lt;/font&gt;" style="text;strokeColor=none;align=center;fillColor=none;html=1;verticalAlign=middle;whiteSpace=wrap;rounded=0;" vertex="1" parent="1">
          <mxGeometry x="490" y="417.5" width="240" height="30" as="geometry" />
        </mxCell>
        <mxCell id="mPhKjkjH0wH_GJncIGl8-21" value="&lt;font color=&quot;#006600&quot; style=&quot;font-size: 16px;&quot;&gt;WebSocket&lt;/font&gt;" style="text;strokeColor=none;align=center;fillColor=none;html=1;verticalAlign=middle;whiteSpace=wrap;rounded=0;" vertex="1" parent="1">
          <mxGeometry x="490" y="467.5" width="240" height="30" as="geometry" />
        </mxCell>
        <mxCell id="mPhKjkjH0wH_GJncIGl8-22" value="" style="shape=process;whiteSpace=wrap;html=1;backgroundOutline=1;fillColor=#f8cecc;strokeColor=#b85450;" vertex="1" parent="1">
          <mxGeometry x="-75" y="455" width="120" height="60" as="geometry" />
        </mxCell>
        <mxCell id="mPhKjkjH0wH_GJncIGl8-23" value="" style="shape=process;whiteSpace=wrap;html=1;backgroundOutline=1;fillColor=#f8cecc;strokeColor=#b85450;" vertex="1" parent="1">
          <mxGeometry x="832" y="740" width="120" height="60" as="geometry" />
        </mxCell>
        <mxCell id="mPhKjkjH0wH_GJncIGl8-24" value="&lt;font style=&quot;font-size: 18px;&quot;&gt;client&lt;/font&gt;" style="text;strokeColor=none;align=center;fillColor=none;html=1;verticalAlign=middle;whiteSpace=wrap;rounded=0;" vertex="1" parent="1">
          <mxGeometry x="827" y="755" width="130" height="30" as="geometry" />
        </mxCell>
        <mxCell id="mPhKjkjH0wH_GJncIGl8-25" value="&lt;font style=&quot;font-size: 18px;&quot;&gt;server&lt;/font&gt;" style="text;strokeColor=none;align=center;fillColor=none;html=1;verticalAlign=middle;whiteSpace=wrap;rounded=0;" vertex="1" parent="1">
          <mxGeometry x="-80" y="470" width="130" height="30" as="geometry" />
        </mxCell>
        <mxCell id="mPhKjkjH0wH_GJncIGl8-26" value="&lt;font style=&quot;font-size: 16px;&quot;&gt;开放端口port1&lt;/font&gt;" style="text;align=center;html=1;verticalAlign=middle;whiteSpace=wrap;rounded=0;" vertex="1" parent="1">
          <mxGeometry x="964.5" y="370" width="98" height="30" as="geometry" />
        </mxCell>
        <mxCell id="mPhKjkjH0wH_GJncIGl8-29" value="" style="shape=flexArrow;endArrow=classic;html=1;rounded=0;fillColor=#dae8fc;strokeColor=#6c8ebf;gradientColor=#7ea6e0;exitX=0.5;exitY=0;exitDx=0;exitDy=0;" edge="1" parent="1" source="mPhKjkjH0wH_GJncIGl8-50">
          <mxGeometry width="50" height="50" relative="1" as="geometry">
            <mxPoint x="1020" y="770" as="sourcePoint" />
            <mxPoint x="1020" y="410" as="targetPoint" />
            <Array as="points">
              <mxPoint x="998" y="670" />
              <mxPoint x="1020" y="670" />
            </Array>
          </mxGeometry>
        </mxCell>
        <mxCell id="mPhKjkjH0wH_GJncIGl8-30" value="" style="shape=flexArrow;endArrow=classic;html=1;rounded=0;fillColor=#dae8fc;gradientColor=#7ea6e0;strokeColor=#6c8ebf;" edge="1" parent="1">
          <mxGeometry width="50" height="50" relative="1" as="geometry">
            <mxPoint x="400" y="460" as="sourcePoint" />
            <mxPoint x="180" y="500" as="targetPoint" />
            <Array as="points">
              <mxPoint x="400" y="500" />
            </Array>
          </mxGeometry>
        </mxCell>
        <mxCell id="mPhKjkjH0wH_GJncIGl8-32" value="&lt;font style=&quot;font-size: 16px;&quot;&gt;公网服务器&lt;br&gt;公网IP：IP2&lt;br&gt;&lt;/font&gt;" style="text;strokeColor=none;align=center;fillColor=none;html=1;verticalAlign=middle;whiteSpace=wrap;rounded=0;" vertex="1" parent="1">
          <mxGeometry x="966" y="308.75" width="95" height="30" as="geometry" />
        </mxCell>
        <mxCell id="mPhKjkjH0wH_GJncIGl8-33" value="" style="image;points=[];aspect=fixed;html=1;align=center;shadow=0;dashed=0;image=img/lib/allied_telesis/computer_and_terminals/Personal_Computer.svg;" vertex="1" parent="1">
          <mxGeometry x="991" y="240" width="44.27" height="60" as="geometry" />
        </mxCell>
        <mxCell id="mPhKjkjH0wH_GJncIGl8-35" value="&lt;font style=&quot;font-size: 16px;&quot;&gt;真正的用户&lt;br&gt;内网IP：IP3&lt;br&gt;&lt;/font&gt;" style="text;strokeColor=none;align=center;fillColor=none;html=1;verticalAlign=middle;whiteSpace=wrap;rounded=0;" vertex="1" parent="1">
          <mxGeometry x="1324.6399999999999" y="760" width="115" height="45" as="geometry" />
        </mxCell>
        <mxCell id="mPhKjkjH0wH_GJncIGl8-36" value="" style="image;points=[];aspect=fixed;html=1;align=center;shadow=0;dashed=0;image=img/lib/allied_telesis/computer_and_terminals/Personal_Computer.svg;" vertex="1" parent="1">
          <mxGeometry x="1360" y="695" width="44.27" height="60" as="geometry" />
        </mxCell>
        <mxCell id="mPhKjkjH0wH_GJncIGl8-37" value="" style="rounded=1;whiteSpace=wrap;html=1;fillColor=#e1d5e7;strokeColor=#9673a6;" vertex="1" parent="1">
          <mxGeometry x="670" y="387.5" width="70" height="30" as="geometry" />
        </mxCell>
        <mxCell id="mPhKjkjH0wH_GJncIGl8-39" value="" style="rounded=1;whiteSpace=wrap;html=1;fillColor=#dae8fc;strokeColor=#6c8ebf;" vertex="1" parent="1">
          <mxGeometry x="670" y="437.5" width="70" height="30" as="geometry" />
        </mxCell>
        <mxCell id="mPhKjkjH0wH_GJncIGl8-40" value="" style="rounded=1;whiteSpace=wrap;html=1;strokeColor=#82b366;fillColor=#d5e8d4;" vertex="1" parent="1">
          <mxGeometry x="670" y="487.5" width="70" height="30" as="geometry" />
        </mxCell>
        <mxCell id="mPhKjkjH0wH_GJncIGl8-41" value="" style="shape=flexArrow;endArrow=classic;html=1;rounded=0;fillColor=#dae8fc;gradientColor=#7ea6e0;strokeColor=#6c8ebf;" edge="1" parent="1">
          <mxGeometry width="50" height="50" relative="1" as="geometry">
            <mxPoint x="890" y="340" as="sourcePoint" />
            <mxPoint x="400" y="390" as="targetPoint" />
            <Array as="points">
              <mxPoint x="890" y="230" />
              <mxPoint x="400" y="230" />
            </Array>
          </mxGeometry>
        </mxCell>
        <mxCell id="mPhKjkjH0wH_GJncIGl8-43" value="&lt;font style=&quot;font-size: 16px;&quot;&gt;开放端口port2&lt;/font&gt;" style="text;align=center;html=1;verticalAlign=middle;whiteSpace=wrap;rounded=0;" vertex="1" parent="1">
          <mxGeometry x="65.25" y="462.5" width="98" height="50" as="geometry" />
        </mxCell>
        <mxCell id="mPhKjkjH0wH_GJncIGl8-48" value="&lt;font style=&quot;font-size: 18px;&quot;&gt;IP3:port3--&amp;gt;IP2:port1&lt;/font&gt;" style="text;strokeColor=none;align=center;fillColor=none;html=1;verticalAlign=middle;whiteSpace=wrap;rounded=0;" vertex="1" parent="1">
          <mxGeometry x="800" y="582.5" width="189.83" height="35" as="geometry" />
        </mxCell>
        <mxCell id="mPhKjkjH0wH_GJncIGl8-50" value="" style="rounded=1;whiteSpace=wrap;html=1;fillColor=#f8cecc;strokeColor=#b85450;" vertex="1" parent="1">
          <mxGeometry x="965" y="740" width="65" height="60" as="geometry" />
        </mxCell>
        <mxCell id="mPhKjkjH0wH_GJncIGl8-51" value="&lt;font style=&quot;font-size: 16px;&quot;&gt;port3&lt;/font&gt;" style="text;strokeColor=none;align=center;fillColor=none;html=1;verticalAlign=middle;whiteSpace=wrap;rounded=0;" vertex="1" parent="1">
          <mxGeometry x="965" y="747.5" width="70" height="45" as="geometry" />
        </mxCell>
        <mxCell id="mPhKjkjH0wH_GJncIGl8-53" value="&lt;font style=&quot;font-size: 16px;&quot;&gt;端口转发&lt;/font&gt;" style="text;strokeColor=none;align=center;fillColor=none;html=1;verticalAlign=middle;whiteSpace=wrap;rounded=0;" vertex="1" parent="1">
          <mxGeometry x="803.5" y="650" width="110" height="30" as="geometry" />
        </mxCell>
        <mxCell id="mPhKjkjH0wH_GJncIGl8-55" value="" style="rounded=1;whiteSpace=wrap;html=1;fillColor=#fff2cc;strokeColor=#d6b656;" vertex="1" parent="1">
          <mxGeometry x="1077" y="358.75" width="113" height="47.5" as="geometry" />
        </mxCell>
        <mxCell id="mPhKjkjH0wH_GJncIGl8-56" value="&lt;font style=&quot;font-size: 16px;&quot;&gt;代理端口&lt;br&gt;port4&lt;br&gt;&lt;/font&gt;" style="text;align=center;html=1;verticalAlign=middle;whiteSpace=wrap;rounded=0;" vertex="1" parent="1">
          <mxGeometry x="1084.64" y="370" width="98" height="30" as="geometry" />
        </mxCell>
        <mxCell id="mPhKjkjH0wH_GJncIGl8-57" value="" style="shape=flexArrow;endArrow=classic;html=1;rounded=0;exitX=1;exitY=0.5;exitDx=0;exitDy=0;fillColor=#d5e8d4;gradientColor=#97d077;strokeColor=#82b366;" edge="1" parent="1" source="mPhKjkjH0wH_GJncIGl8-51">
          <mxGeometry width="50" height="50" relative="1" as="geometry">
            <mxPoint x="1100" y="760" as="sourcePoint" />
            <mxPoint x="1140" y="410" as="targetPoint" />
            <Array as="points">
              <mxPoint x="1140" y="770" />
            </Array>
          </mxGeometry>
        </mxCell>
        <mxCell id="mPhKjkjH0wH_GJncIGl8-58" value="" style="shape=flexArrow;endArrow=classic;html=1;rounded=0;fillColor=#d5e8d4;gradientColor=#97d077;strokeColor=#82b366;" edge="1" parent="1">
          <mxGeometry width="50" height="50" relative="1" as="geometry">
            <mxPoint x="920" y="340" as="sourcePoint" />
            <mxPoint x="360" y="390" as="targetPoint" />
            <Array as="points">
              <mxPoint x="920" y="190" />
              <mxPoint x="360" y="190" />
            </Array>
          </mxGeometry>
        </mxCell>
        <mxCell id="mPhKjkjH0wH_GJncIGl8-59" value="" style="rounded=1;whiteSpace=wrap;html=1;fillColor=#f5f5f5;fontColor=#333333;strokeColor=#666666;" vertex="1" parent="1">
          <mxGeometry x="1160" y="640" width="117" height="50" as="geometry" />
        </mxCell>
        <mxCell id="mPhKjkjH0wH_GJncIGl8-60" value="" style="rounded=0;whiteSpace=wrap;html=1;fillColor=#d5e8d4;strokeColor=#82b366;gradientColor=#97d077;" vertex="1" parent="1">
          <mxGeometry x="1160" y="580" width="300" height="40" as="geometry" />
        </mxCell>
        <mxCell id="mPhKjkjH0wH_GJncIGl8-61" value="&lt;font style=&quot;font-size: 18px;&quot;&gt;dst:{IP1:port2},socks5:{IP2:port4}&lt;/font&gt;" style="text;strokeColor=none;align=center;fillColor=none;html=1;verticalAlign=middle;whiteSpace=wrap;rounded=0;" vertex="1" parent="1">
          <mxGeometry x="1169.28" y="582.5" width="280.55" height="35" as="geometry" />
        </mxCell>
        <mxCell id="mPhKjkjH0wH_GJncIGl8-62" value="&lt;span style=&quot;font-size: 16px;&quot;&gt;代理模式&lt;/span&gt;" style="text;strokeColor=none;align=center;fillColor=none;html=1;verticalAlign=middle;whiteSpace=wrap;rounded=0;" vertex="1" parent="1">
          <mxGeometry x="1163.5" y="650" width="110" height="30" as="geometry" />
        </mxCell>
        <mxCell id="mPhKjkjH0wH_GJncIGl8-63" value="" style="shape=flexArrow;endArrow=classic;html=1;rounded=0;fillColor=#d5e8d4;gradientColor=#97d077;strokeColor=#82b366;" edge="1" parent="1">
          <mxGeometry width="50" height="50" relative="1" as="geometry">
            <mxPoint x="300" y="460" as="sourcePoint" />
            <mxPoint x="180" y="460" as="targetPoint" />
          </mxGeometry>
        </mxCell>
        <mxCell id="mPhKjkjH0wH_GJncIGl8-64" value="" style="rounded=0;whiteSpace=wrap;html=1;fillColor=#dae8fc;strokeColor=#6c8ebf;gradientColor=#7ea6e0;" vertex="1" parent="1">
          <mxGeometry x="414" y="243.75" width="216" height="37.5" as="geometry" />
        </mxCell>
        <mxCell id="mPhKjkjH0wH_GJncIGl8-65" value="&lt;font style=&quot;font-size: 18px;&quot;&gt;IP2:port1--&amp;gt;frpClient&lt;/font&gt;" style="text;strokeColor=none;align=center;fillColor=none;html=1;verticalAlign=middle;whiteSpace=wrap;rounded=0;" vertex="1" parent="1">
          <mxGeometry x="427" y="245" width="190" height="35" as="geometry" />
        </mxCell>
        <mxCell id="mPhKjkjH0wH_GJncIGl8-66" value="" style="rounded=0;whiteSpace=wrap;html=1;fillColor=#d5e8d4;strokeColor=#82b366;gradientColor=#97d077;" vertex="1" parent="1">
          <mxGeometry x="470" y="130" width="150" height="40" as="geometry" />
        </mxCell>
        <mxCell id="mPhKjkjH0wH_GJncIGl8-67" value="&lt;font style=&quot;font-size: 18px;&quot;&gt;dst:{IP1:port2}&lt;/font&gt;" style="text;strokeColor=none;align=center;fillColor=none;html=1;verticalAlign=middle;whiteSpace=wrap;rounded=0;" vertex="1" parent="1">
          <mxGeometry x="479.28" y="132.5" width="130.72" height="35" as="geometry" />
        </mxCell>
        <mxCell id="mPhKjkjH0wH_GJncIGl8-68" value="" style="rounded=0;whiteSpace=wrap;html=1;fillColor=#dae8fc;strokeColor=#6c8ebf;gradientColor=#7ea6e0;" vertex="1" parent="1">
          <mxGeometry x="203.25" y="525" width="186" height="37.5" as="geometry" />
        </mxCell>
        <mxCell id="mPhKjkjH0wH_GJncIGl8-69" value="&lt;font style=&quot;font-size: 18px;&quot;&gt;IP1:port2&amp;lt;--frpClient&lt;/font&gt;" style="text;strokeColor=none;align=center;fillColor=none;html=1;verticalAlign=middle;whiteSpace=wrap;rounded=0;" vertex="1" parent="1">
          <mxGeometry x="190" y="527.5" width="210" height="35" as="geometry" />
        </mxCell>
        <mxCell id="mPhKjkjH0wH_GJncIGl8-70" value="" style="rounded=0;whiteSpace=wrap;html=1;fillColor=#d5e8d4;strokeColor=#82b366;gradientColor=#97d077;" vertex="1" parent="1">
          <mxGeometry x="180" y="380" width="125" height="47.5" as="geometry" />
        </mxCell>
        <mxCell id="mPhKjkjH0wH_GJncIGl8-71" value="&lt;font style=&quot;font-size: 18px;&quot;&gt;dst:{IP1:port2}&lt;/font&gt;" style="text;strokeColor=none;align=center;fillColor=none;html=1;verticalAlign=middle;whiteSpace=wrap;rounded=0;" vertex="1" parent="1">
          <mxGeometry x="180" y="387.5" width="125" height="35" as="geometry" />
        </mxCell>
      </root>
    </mxGraphModel>
  </diagram>
</mxfile>
